<svg width="200" height="200" viewBox="0 0 200 200" xmlns="http://www.w3.org/2000/svg">
  <rect width="200" height="200" rx="20" fill="#E8F4FD"/>
  <!-- Monitor -->
  <rect x="40" y="30" width="120" height="90" rx="10" fill="#D4C5A9"/>
  <rect x="50" y="38" width="100" height="70" rx="6" fill="#2D5A27"/>
  <!-- Screen text -->
  <text x="60" y="62" fill="#4ADE80" font-size="10" font-family="monospace">C:\&gt; _</text>
  <text x="60" y="78" fill="#4ADE80" font-size="8" font-family="monospace">Ready.</text>
  <!-- Monitor base -->
  <rect x="75" y="120" width="50" height="8" rx="2" fill="#C4B592"/>
  <rect x="65" y="128" width="70" height="6" rx="3" fill="#B8A880"/>
  <!-- Keyboard -->
  <rect x="35" y="142" width="130" height="28" rx="6" fill="#D4C5A9"/>
  <g fill="#B8A880">
    <rect x="42" y="148" width="8" height="6" rx="1"/>
    <rect x="53" y="148" width="8" height="6" rx="1"/>
    <rect x="64" y="148" width="8" height="6" rx="1"/>
    <rect x="75" y="148" width="8" height="6" rx="1"/>
    <rect x="86" y="148" width="8" height="6" rx="1"/>
    <rect x="97" y="148" width="8" height="6" rx="1"/>
    <rect x="108" y="148" width="8" height="6" rx="1"/>
    <rect x="119" y="148" width="8" height="6" rx="1"/>
    <rect x="130" y="148" width="8" height="6" rx="1"/>
    <rect x="141" y="148" width="8" height="6" rx="1"/>
    <rect x="48" y="157" width="8" height="6" rx="1"/>
    <rect x="59" y="157" width="8" height="6" rx="1"/>
    <rect x="70" y="157" width="8" height="6" rx="1"/>
    <rect x="81" y="157" width="8" height="6" rx="1"/>
    <rect x="92" y="157" width="8" height="6" rx="1"/>
    <rect x="103" y="157" width="8" height="6" rx="1"/>
    <rect x="114" y="157" width="8" height="6" rx="1"/>
    <rect x="125" y="157" width="8" height="6" rx="1"/>
    <rect x="136" y="157" width="8" height="6" rx="1"/>
  </g>
  <!-- Floppy disk -->
  <rect x="150" y="40" width="30" height="32" rx="3" fill="#1E40AF"/>
  <rect x="155" y="42" width="20" height="12" rx="2" fill="#93C5FD"/>
  <rect x="160" y="60" width="10" height="6" rx="1" fill="#BFDBFE"/>
  <!-- Stars -->
  <circle cx="25" cy="25" r="4" fill="#FBBF24" opacity="0.7"/>
  <circle cx="180" cy="180" r="3" fill="#F472B6" opacity="0.6"/>
  <circle cx="15" cy="160" r="3" fill="#34D399" opacity="0.6"/>
</svg>
