<svg width="200" height="200" viewBox="0 0 200 200" xmlns="http://www.w3.org/2000/svg">
  <rect width="200" height="200" rx="20" fill="#FEF3C7"/>
  <!-- Phone body -->
  <rect x="60" y="20" width="80" height="160" rx="14" fill="#1F2937"/>
  <rect x="62" y="22" width="76" height="156" rx="13" fill="#374151"/>
  <!-- Screen -->
  <rect x="68" y="40" width="64" height="110" rx="4" fill="#111827"/>
  <!-- App icons on screen -->
  <rect x="74" y="48" width="14" height="14" rx="4" fill="#3B82F6"/>
  <rect x="93" y="48" width="14" height="14" rx="4" fill="#22C55E"/>
  <rect x="112" y="48" width="14" height="14" rx="4" fill="#EF4444"/>
  <rect x="74" y="68" width="14" height="14" rx="4" fill="#F59E0B"/>
  <rect x="93" y="68" width="14" height="14" rx="4" fill="#8B5CF6"/>
  <rect x="112" y="68" width="14" height="14" rx="4" fill="#EC4899"/>
  <rect x="74" y="88" width="14" height="14" rx="4" fill="#14B8A6"/>
  <rect x="93" y="88" width="14" height="14" rx="4" fill="#F97316"/>
  <rect x="112" y="88" width="14" height="14" rx="4" fill="#6366F1"/>
  <rect x="74" y="108" width="14" height="14" rx="4" fill="#06B6D4"/>
  <rect x="93" y="108" width="14" height="14" rx="4" fill="#D946EF"/>
  <rect x="112" y="108" width="14" height="14" rx="4" fill="#84CC16"/>
  <!-- Dock -->
  <rect x="72" y="128" width="56" height="16" rx="4" fill="rgba(255,255,255,0.1)"/>
  <rect x="76" y="130" width="10" height="12" rx="3" fill="#22C55E"/>
  <rect x="89" y="130" width="10" height="12" rx="3" fill="#3B82F6"/>
  <rect x="102" y="130" width="10" height="12" rx="3" fill="#F59E0B"/>
  <rect x="115" y="130" width="10" height="12" rx="3" fill="#EF4444"/>
  <!-- Speaker -->
  <rect x="88" y="28" width="24" height="4" rx="2" fill="#4B5563"/>
  <!-- Home button -->
  <circle cx="100" cy="164" r="8" fill="none" stroke="#4B5563" stroke-width="2"/>
  <!-- Sparkles -->
  <circle cx="30" cy="40" r="5" fill="#FBBF24" opacity="0.6"/>
  <circle cx="170" cy="50" r="4" fill="#F472B6" opacity="0.7"/>
  <circle cx="40" cy="160" r="3" fill="#34D399" opacity="0.6"/>
  <circle cx="165" cy="165" r="4" fill="#818CF8" opacity="0.6"/>
  <!-- Touch ripple -->
  <circle cx="100" cy="90" r="30" fill="none" stroke="#60A5FA" stroke-width="1" opacity="0.3"/>
  <circle cx="100" cy="90" r="42" fill="none" stroke="#60A5FA" stroke-width="0.5" opacity="0.15"/>
</svg>
