<svg width="200" height="200" viewBox="0 0 200 200" xmlns="http://www.w3.org/2000/svg">
  <rect width="200" height="200" rx="20" fill="#EDE9FE"/>
  <!-- Globe -->
  <circle cx="100" cy="95" r="55" fill="#3B82F6"/>
  <ellipse cx="100" cy="95" rx="55" ry="55" fill="none" stroke="#93C5FD" stroke-width="1.5"/>
  <ellipse cx="100" cy="95" rx="25" ry="55" fill="none" stroke="#93C5FD" stroke-width="1.5"/>
  <line x1="45" y1="95" x2="155" y2="95" stroke="#93C5FD" stroke-width="1.5"/>
  <line x1="50" y1="70" x2="150" y2="70" stroke="#93C5FD" stroke-width="1"/>
  <line x1="50" y1="120" x2="150" y2="120" stroke="#93C5FD" stroke-width="1"/>
  <!-- Continents (simplified) -->
  <path d="M75 65 C80 55, 95 55, 90 65 C85 72, 78 70, 75 65Z" fill="#4ADE80" opacity="0.7"/>
  <path d="M105 80 C115 72, 135 78, 130 90 C125 98, 108 95, 105 80Z" fill="#4ADE80" opacity="0.7"/>
  <path d="M80 100 C88 95, 100 100, 95 110 C90 118, 75 112, 80 100Z" fill="#4ADE80" opacity="0.7"/>
  <!-- Connection nodes -->
  <circle cx="60" cy="60" r="6" fill="#FBBF24" stroke="#F59E0B" stroke-width="1.5"/>
  <circle cx="140" cy="75" r="6" fill="#FBBF24" stroke="#F59E0B" stroke-width="1.5"/>
  <circle cx="75" cy="130" r="6" fill="#FBBF24" stroke="#F59E0B" stroke-width="1.5"/>
  <circle cx="130" cy="115" r="6" fill="#FBBF24" stroke="#F59E0B" stroke-width="1.5"/>
  <!-- Connection lines -->
  <line x1="60" y1="60" x2="140" y2="75" stroke="#FBBF24" stroke-width="1.5" opacity="0.5"/>
  <line x1="140" y1="75" x2="130" y2="115" stroke="#FBBF24" stroke-width="1.5" opacity="0.5"/>
  <line x1="75" y1="130" x2="130" y2="115" stroke="#FBBF24" stroke-width="1.5" opacity="0.5"/>
  <line x1="60" y1="60" x2="75" y2="130" stroke="#FBBF24" stroke-width="1.5" opacity="0.5"/>
  <!-- Browser windows -->
  <rect x="20" y="150" width="45" height="30" rx="5" fill="white" stroke="#D1D5DB" stroke-width="1"/>
  <rect x="20" y="150" width="45" height="8" rx="5" fill="#E5E7EB"/>
  <circle cx="26" cy="154" r="2" fill="#EF4444"/>
  <circle cx="32" cy="154" r="2" fill="#FBBF24"/>
  <circle cx="38" cy="154" r="2" fill="#22C55E"/>
  <rect x="135" y="155" width="45" height="30" rx="5" fill="white" stroke="#D1D5DB" stroke-width="1"/>
  <rect x="135" y="155" width="45" height="8" rx="5" fill="#E5E7EB"/>
  <circle cx="141" cy="159" r="2" fill="#EF4444"/>
  <circle cx="147" cy="159" r="2" fill="#FBBF24"/>
  <circle cx="153" cy="159" r="2" fill="#22C55E"/>
  <!-- Sparkles -->
  <circle cx="30" cy="30" r="4" fill="#F472B6" opacity="0.6"/>
  <circle cx="170" cy="35" r="3" fill="#34D399" opacity="0.7"/>
  <circle cx="170" cy="145" r="3" fill="#FBBF24" opacity="0.6"/>
</svg>
